<svg id="Layer_1" data-name="Layer 1" xmlns="http://www.w3.org/2000/svg" viewBox="0 0 433.29 358.67"><defs><style>.cls-1{fill:#0b8295;}.cls-2{fill:#fff;}.cls-3{fill:#5ab1ce;}.cls-4{fill:none;stroke:#fff;stroke-miterlimit:10;}.cls-5{fill:#a4d8e1;}.cls-6{fill:#cc2b1e;}.cls-7{fill:#c7d3d7;}.cls-8{fill:#1cc1d8;}</style></defs><title>icon_courses</title><path class="cls-1" d="M15.43,8H420.56a0,0,0,0,1,0,0V31a23,23,0,0,1-23,23H38.43a23,23,0,0,1-23-23V8a0,0,0,0,1,0,0Z" transform="translate(435.99 61.95) rotate(180)"/><path class="cls-2" d="M51.42,342.42a27.27,27.27,0,0,1-27.68-27.68V58.91H421.5V314.74a27.27,27.27,0,0,1-27.68,27.68Z"/><circle class="cls-2" cx="49.04" cy="33.84" r="7.1"/><circle class="cls-2" cx="72.82" cy="33.84" r="7.1"/><circle class="cls-2" cx="95.88" cy="33.84" r="7.1"/><circle class="cls-2" cx="387.48" cy="32.84" r="10.24"/><path class="cls-3" d="M391.2,38l-3.72-4.25L383.77,38h-1.06L387,33.24l-4-4.51H384l3.45,4,3.45-4H392l-4,4.51L392.26,38Z"/><path class="cls-4" d="M47.68,340.93A27.27,27.27,0,0,1,20,313.26V57.54H418V313.26a27.27,27.27,0,0,1-27.69,27.67Z"/><path class="cls-1" d="M413.44,61.08V313.26a24.23,24.23,0,0,1-24.14,24.12H46.68a23.93,23.93,0,0,1-24.14-24.12V61.08h390.9m7.1-7.09H15.43V313.26a31,31,0,0,0,31.24,31.21H389.29a31,31,0,0,0,31.24-31.21V54Z"/><path class="cls-5" d="M392.75,90.41V252c0,2.59-2.93,4.68-6.57,4.68h-341c-3.62,0-6.57-2.11-6.57-4.68V90.41c0-2.59,2.93-4.68,6.57-4.68h341C389.8,85.71,392.75,87.81,392.75,90.41Z"/><rect class="cls-2" x="57.7" y="103.71" width="316.97" height="119.72"/><path class="cls-1" d="M59,232.81H370.85a2.76,2.76,0,0,1,2.44,3v0a2.76,2.76,0,0,1-2.44,3H59a2.76,2.76,0,0,1-2.44-3v0A2.76,2.76,0,0,1,59,232.81Z"/><path class="cls-6" d="M57.62,232.81H187.4c.56,0,1,1.34,1,3v0c0,1.65-.45,3-1,3H57.62c-.56,0-1-1.34-1-3v0C56.61,234.15,57.06,232.81,57.62,232.81Z"/><circle class="cls-2" cx="81.27" cy="235.46" r="7"/><circle class="cls-6" cx="210.7" cy="163.65" r="30.42" transform="translate(-46.51 92.83) rotate(-22.44)"/><g id="Layer_1-2" data-name="Layer 1-2"><path class="cls-2" d="M204.45,153.08v22.43a.77.77,0,0,0,1.21.63l15.72-10.94a.77.77,0,0,0,0-1.25l-15.72-11.61a.77.77,0,0,0-1.21.74Z"/></g><rect class="cls-7" x="82.67" y="284.07" width="59.61" height="6.18" rx="3.09" ry="3.09"/><rect class="cls-7" x="82.67" y="298.1" width="126.27" height="6.18" rx="3.09" ry="3.09"/><path class="cls-8" d="M39.56,279H69.69a1.92,1.92,0,0,1,1.94,1.91v26.18A1.92,1.92,0,0,1,69.69,309H39.56a1.92,1.92,0,0,1-1.94-1.91V280.93A1.92,1.92,0,0,1,39.56,279Z"/><rect class="cls-7" x="270.78" y="282.44" width="59.61" height="6.18" rx="3.09" ry="3.09"/><rect class="cls-7" x="270.78" y="296.47" width="126.27" height="6.18" rx="3.09" ry="3.09"/><path class="cls-8" d="M228.66,277.39h30.13a1.92,1.92,0,0,1,1.94,1.91v26.18a1.92,1.92,0,0,1-1.94,1.91H228.66a1.92,1.92,0,0,1-1.94-1.91V279.3A1.92,1.92,0,0,1,228.66,277.39Z"/></svg>