<?xml version="1.0" encoding="utf-8"?>
<!-- Generator: Adobe Illustrator 20.0.0, SVG Export Plug-In . SVG Version: 6.00 Build 0)  -->
<svg version="1.1" id="Layer_1" xmlns="http://www.w3.org/2000/svg" xmlns:xlink="http://www.w3.org/1999/xlink" x="0px" y="0px"
	 viewBox="0 0 405.2 252.1" style="enable-background:new 0 0 405.2 252.1;" xml:space="preserve">
<style type="text/css">
	.st0{display:none;}
	.st1{display:inline;fill:#E0E4ED;}
	.st2{fill:#4D9596;}
	.st3{opacity:0.36;fill:#378497;enable-background:new    ;}
	.st4{fill:#B4DCE5;}
	.st5{fill:#40AACF;}
	.st6{opacity:0.55;fill:#ABDEE7;enable-background:new    ;}
	.st7{fill:#ABDEE7;}
	.st8{fill:#C8F0F5;}
	.st9{fill:#55C9EA;}
	.st10{fill:none;stroke:#55C9EA;stroke-width:1.8219;stroke-miterlimit:10;}
	.st11{fill:url(#SVGID_1_);}
	.st12{fill:#FFFFFF;}
	.st13{fill:#202020;}
	.st14{fill:#DBB9C5;}
	.st15{fill:#DCB9C5;}
	.st16{fill:#F4BE94;}
	.st17{fill:#F8C487;}
	.st18{fill:#4C8AA1;}
	.st19{fill:#5AB1CE;}
	.st20{fill:#555C62;}
	.st21{fill:#EDF8F9;}
	.st22{opacity:0.4;}
	.st23{opacity:0.5;}
	.st24{fill:none;stroke:#FFFFFF;stroke-width:0.56;stroke-miterlimit:10;}
	.st25{opacity:0.2;fill:#3EA9CE;enable-background:new    ;}
	.st26{opacity:0.8;fill:#FFFFFF;}
	.st27{fill:#3EA9CD;}
	.st28{opacity:0.5;fill:#A7D8BF;}
	.st29{opacity:0.2;fill:#E2AAA6;enable-background:new    ;}
	.st30{opacity:0.2;fill:#F8C587;enable-background:new    ;}
	.st31{opacity:0.7;fill:none;stroke:#FFFFFF;stroke-width:2;stroke-linecap:round;stroke-miterlimit:10;enable-background:new    ;}
	.st32{opacity:0.7;}
	.st33{opacity:0.6;fill:url(#SVGID_2_);enable-background:new    ;}
	.st34{fill:#E13230;}
	.st35{opacity:0.7;fill:#FFFFFF;enable-background:new    ;}
	.st36{font-family:'Roboto-Light';}
	.st37{font-size:4.6092px;}
</style>
<g id="BACKGROUND" class="st0">
	<rect x="-47.4" y="-125.1" class="st1" width="500" height="500"/>
</g>
<path class="st2" d="M272.9,88.2l1.8-5.6l-3.7-2.5c0-1.1,0-2.2-0.2-3.2l3.4-3.1l-2.6-5.2l-4.5,0.9c-0.7-0.8-1.5-1.7-2.4-2.3l0.2-4.7
	l-5.6-1.8l-2.6,4c-1.1,0-2.2,0.1-3.3,0.3l-3.1-3.3l-5.2,2.7l0.8,4.5c-0.8,0.7-1.6,1.5-2.2,2.4l-4.6-0.2l-1.8,5.6l3.8,2.6
	c0,1.1,0.1,2.2,0.3,3.2l-3.3,3.1l2.7,5.2l4.5-0.8c0.7,0.8,1.6,1.3,2.5,1.9l-0.1,4.4l5.6,1.8l2.5-3.6c1.1,0,2.1,0.1,3.2-0.1l3.1,3.4
	l5.2-2.6l-0.9-4.4c0.8-0.7,1.4-1.6,2-2.5L272.9,88.2z M253.9,86.5c-3.8-1.3-5.9-5.4-4.6-9.2c1.3-3.8,5.4-5.9,9.2-4.7
	c3.8,1.3,5.9,5.4,4.6,9.2C261.9,85.7,257.7,87.8,253.9,86.5z"/>
<path class="st2" d="M248.3,43l2.9-2.9l-1.5-2.7c0.4-0.7,0.7-1.3,0.9-2l3-0.8v-4.1l-3-0.9c-0.2-0.7-0.4-1.5-0.8-2.2l1.6-2.9
	l-2.9-2.9l-2.9,1.6c-0.7-0.4-1.4-0.6-2.1-0.8l-0.9-3h-4.1l-0.9,3c-0.7,0.2-1.5,0.5-2.1,0.8l-2.8-1.6l-2.9,2.9l1.6,2.8
	c-0.4,0.7-0.6,1.4-0.8,2.1l-3,0.9v4.1l3,0.9c0.2,0.7,0.6,1.3,0.9,2l-1.4,2.7l2.9,2.9l2.7-1.4c0.7,0.4,1.3,0.7,2,0.9l0.8,3.1h4.1
	l0.9-3c0.7-0.2,1.4-0.5,2-0.9L248.3,43z M237.1,36c-2-2-2-5.2,0-7.2s5.2-2,7.2,0s2,5.2,0,7.2S239.1,38,237.1,36z"/>
<path class="st3" d="M73.5,178.9c-5.7-7.4-15.5-3.1-17.9,2.7v0.1v-0.1c-2.4-5.8-12.1-10-17.9-2.7c-7.9,10.1-2.5,25.3,8.2,32.3
	c0.8,0.5,1.5,1,2.3,1.4c3.3,0.8,5.9-0.3,7.4-2.2c1.5,1.9,4.1,3,7.4,2.2c0.7-0.4,1.5-0.9,2.3-1.4C75.9,204.2,81.3,189.1,73.5,178.9z"
	/>
<path class="st4" d="M56.7,179.9l16-15.1C72.7,164.7,51.9,167.6,56.7,179.9z"/>
<path class="st5" d="M56.7,179.9l16-15.1C72.7,164.7,68.8,185.2,56.7,179.9z"/>
<polygon class="st5" points="56.7,183.3 53.9,183.3 53.9,171 52.6,166.9 55.3,166 56.7,170.2 "/>
<polygon class="st6" points="141,143.3 180.4,16.2 220.4,143.3 225.4,143.3 182.7,5.1 178.1,5.1 135.9,143.3 "/>
<polygon class="st6" points="156.2,143.3 195.7,16.2 235.7,143.3 240.7,143.3 198,5.1 193.4,5.1 151.2,143.3 "/>
<path class="st7" d="M113.6,128.3l20.8-39.1C134.5,89.2,100.4,112.1,113.6,128.3z"/>
<path class="st8" d="M113.6,128.3l20.8-39.1C134.5,89.2,134.5,130.3,113.6,128.3z"/>
<path class="st7" d="M113.4,148l22.6-21.8C136,126.2,108,134.2,113.4,148z"/>
<path class="st8" d="M113.4,148l22.7-21.7C136,126.3,127,153.9,113.4,148z"/>
<path class="st9" d="M113.1,164.4l12.8-12.3C125.9,152.2,110,156.6,113.1,164.4z"/>
<path class="st8" d="M113.1,164.4l12.8-12.3C125.9,152.2,120.7,167.8,113.1,164.4z"/>
<line class="st10" x1="113.7" y1="176" x2="113.7" y2="87.4"/>
<path class="st7" d="M113.3,93.5V47.2C113.3,47.2,93,85.1,113.3,93.5z"/>
<path class="st8" d="M113.3,93.5V47.2C113.3,47.2,133.7,85.1,113.3,93.5z"/>
<path class="st7" d="M113.6,118.6l-24.4-37C89.2,81.7,93.1,122.6,113.6,118.6z"/>
<path class="st8" d="M113.6,118.6l-24.4-37C89.2,81.7,125.3,101.2,113.6,118.6z"/>
<path class="st7" d="M113.7,141.6l-28.8-23.7C84.9,117.8,98.1,149.8,113.7,141.6z"/>
<path class="st8" d="M113.7,141.6l-28.8-23.7C84.9,117.8,118.9,124.7,113.7,141.6z"/>
<path class="st7" d="M114,156.7l-15.2-12.5C98.8,144.2,105.8,161.1,114,156.7z"/>
<path class="st8" d="M114,156.7l-15.2-12.5C98.8,144.2,116.7,147.8,114,156.7z"/>
<linearGradient id="SVGID_1_" gradientUnits="userSpaceOnUse" x1="90.15" y1="-171.75" x2="142" y2="-223.6" gradientTransform="matrix(1 0 0 -1 0 -1)">
	<stop  offset="0.4121" style="stop-color:#EAEDF0"/>
	<stop  offset="1" style="stop-color:#C9D2DA"/>
</linearGradient>
<polygon class="st11" points="140.2,224.4 91.9,224.4 89.6,171.3 142.6,171.3 "/>
<polygon class="st5" points="91,204.2 91.9,224.4 140.2,224.4 141.1,204.2 "/>
<path class="st4" d="M80.5,210.8h23.8c5.1,0,9.2,4.2,9.2,9.4s-4.1,9.4-9.2,9.4H80.5V210.8z"/>
<path class="st2" d="M112.1,225.3c-1.6,2.6-4.5,4.4-7.8,4.4H80.5v-4.4H112.1z"/>
<path class="st12" d="M7.7,212.7h78.7c4,0,7.3,3.4,7.3,7.5s-3.3,7.5-7.3,7.5H7.7V212.7z"/>
<rect x="7.7" y="212.7" class="st8" width="13.4" height="15"/>
<path class="st4" d="M6.3,225.8h80.1c3,0,5.4-2.5,5.4-5.6s-2.4-5.6-5.4-5.6H6.3v-3.9h80.1c5.1,0,9.2,4.2,9.2,9.4s-4.1,9.4-9.2,9.4
	H6.3V225.8z"/>
<path class="st2" d="M82.8,221.4H7.7v-2.2h75.1c0.3,0,0.6,0.3,0.6,0.6v1.1C83.4,221.1,83.1,221.4,82.8,221.4z"/>
<path class="st2" d="M103.4,220.8c0-5.8-4.6-9.7-10-9.7h6.3c5.4,0,10,3.9,10,9.7s-4.2,8.9-9.5,8.9h-6.3
	C99.3,229.7,103.4,226.6,103.4,220.8z"/>
<polygon class="st2" points="58.5,224.1 62.4,221.6 66.2,224.1 66.2,219.1 58.5,219.1 "/>
<path class="st13" d="M132.3,238.6V98.2c0-9.1,7.4-16.4,16.4-16.4h216.1c9.1,0,16.4,7.4,16.4,16.4v140.4L132.3,238.6L132.3,238.6z"
	/>
<path class="st7" d="M364.8,83.1c8.3,0,15.1,6.8,15.1,15.1v139H133.6v-139c0-8.3,6.8-15.1,15.1-15.1H364.8 M364.8,80.5H148.7
	c-9.8,0-17.8,8-17.8,17.8V240h251.6V98.2C382.6,88.4,374.6,80.5,364.8,80.5L364.8,80.5z"/>
<path class="st5" d="M372.9,247.4H140.6c-9.5,0-18.2-5-23.1-13.1l0,0h278.6l0,0C391.2,242.4,382.4,247.4,372.9,247.4z"/>
<path class="st6" d="M222.4,234.3h68.7l0,0c0,2.3-1.9,4.2-4.2,4.2h-60.3C224.3,238.5,222.4,236.6,222.4,234.3L222.4,234.3z"/>
<path d="M295.8,76.8l-0.4,3.7h-11.3l0,0c0.3-1.4,1.7-2.2,3.1-2l1.4,0.2c0.9,0,3.8-1,3.5-1.9L295.8,76.8z"/>
<path class="st2" d="M319.5,78.7l-16.8-12.3l-6.9,13l-5.1-2.9l7.9-17.3c1.1-2.4,3.9-3.3,6.2-2.1l18.6,10L319.5,78.7z"/>
<path class="st5" d="M338.7,72.4v1.4c0,4.4-3.6,8-8,8l0,0l-21.1-0.3h-28.9l-0.4-3.6l16.8-2.3l3.8-0.6l18.9-2.6H338.7z"/>
<path class="st8" d="M319.5,40.7h12.9c3.4,0,6.5,1.8,8.1,4.7l5,11.1c0.8,1.7,1.2,3.6,1.2,5.5v16.7h-6V61.6l-2-5.7v18.3h-19.8
	l-1.4-23.4l-9.3,8.6c-2,2.1-5.5,1.5-6.8-1l-8.2-15.8l4.1-2.5l7.2,11.7l8.3-8.4C314.6,41.7,317,40.7,319.5,40.7z"/>
<path class="st14" d="M316.5,26c-0.1-3.6,3.7-7.9,8.8-8c3.1,0,6,1.7,7.7,4.4l0.2,0.3c1.3,2.2,1.7,4.8,0.9,7.2l-2.6,6.4l-0.2,4.3
	l-0.1,0.1c-2.1,1.9-5.3,1.9-7.3-0.1l0,0l0.2-4.6h-3.4c-2.4,0-4.3-2-4.3-4.4l0,0v-2L316.5,26z"/>
<path d="M329.9,27.6l-2.3-5l-3.3,1.1c-2.5,0.8-5.2,0.6-7.5-0.6l0,0c0-3.3,2.9-6.4,4.7-7.3c2-1,4.5-1.4,6.8-0.8l0,0
	c5.7,1.4,8.9,7.5,6.8,13.1c-0.7,1.8-1.6,4.3-2.9,6.6L329.9,27.6z"/>
<path class="st14" d="M327.6,28.4c0,1.2,1,2.2,2.2,2.2s2.2-1,2.2-2.2s-1-2.2-2.2-2.2C328.5,26.2,327.6,27.2,327.6,28.4z"/>
<path class="st12" d="M320.1,31.4c0,1.1,0.9,1.9,1.9,1.9c1.1,0,1.9-0.9,1.9-1.9"/>
<g>
	<g>
		<path class="st15" d="M341,87.4L341,87.4c-0.5,0-0.9-0.4-0.9-0.9v-4.1L342,81v5.4C341.9,87,341.5,87.4,341,87.4z"/>
		<path class="st15" d="M342.9,88.3L342.9,88.3c-0.5,0-0.9-0.4-0.9-0.9l-0.1-6.3h1.9l0.1,6.3C343.8,87.9,343.4,88.3,342.9,88.3z"/>
		<path class="st15" d="M344.7,87.4L344.7,87.4c-0.5,0-0.9-0.4-0.9-0.9v-5.4h1.9v5.4C345.6,87,345.2,87.4,344.7,87.4z"/>
		<path class="st15" d="M346.6,84.9L346.6,84.9c-0.5,0-0.9-0.4-0.9-0.9v-2.9h1.9V84C347.5,84.4,347.1,84.9,346.6,84.9z"/>
	</g>
	<path class="st15" d="M347.5,82.2v-1.8l-0.7-1.6l-4.9-0.1l-0.1,0.1c-1.2,1.1-1.7,2.6-1.7,4.2H340L347.5,82.2z"/>
</g>
<path class="st16" d="M297.2,40.2l-0.5-3.6v-2.9c0-0.5-0.4-0.8-0.8-0.8l0,0c-0.5,0-0.9,0.4-0.8,0.9l0.2,3.2l-5.5,3.7l3.5,1.9
	L297.2,40.2z"/>
<path d="M294.6,40.7h-5.1c-0.4,0-0.7-0.3-0.7-0.7v-1.2l0.7-4.1l-0.7-3.7v-0.8c0-0.4,0.3-0.7,0.7-0.7h5.1c0.4,0,0.7,0.3,0.7,0.7V31
	l-0.8,3.7l0.8,4.2V40C295.3,40.4,295,40.7,294.6,40.7z"/>
<g>
	<path class="st12" d="M293,38.8c0,0.5-0.4,0.9-0.9,0.9s-0.9-0.4-0.9-0.9s0.4-0.9,0.9-0.9C292.6,37.9,293,38.3,293,38.8z"/>
</g>
<rect x="288.8" y="31" class="st17" width="6.4" height="7.8"/>
<rect x="327.1" y="22" width="2.2" height="8.2"/>
<polygon class="st12" points="291.1,36.4 291.1,33.3 293.5,34.9 "/>
<rect x="317.1" y="13.9" class="st18" width="17.9" height="6.5"/>
<polygon class="st5" points="325.7,19.4 340.3,14.4 325.7,8.4 311.2,14.4 "/>
<polygon class="st19" points="336.7,22 339.5,22 338.6,19.4 338.6,14.4 337.6,14.4 337.6,19.4 "/>
<path class="st20" d="M258.5,89.6c0,1-0.8,1.8-1.8,1.8s-1.8-0.8-1.8-1.8s0.8-1.8,1.8-1.8S258.5,88.6,258.5,89.6z"/>
<path d="M280.9,81.7l-3.7,1.9l-0.4-11.5l0,0c1.4,0.3,2.3,1.6,2.2,3.1l-0.2,1.4c0,1,1,1.6,1.9,1.2l0,0L280.9,81.7z"/>
<g id="DESIGNED_BY_FREEPIK">
</g>
<g id="Layer_2_1_">
</g>
<polygon class="st2" points="176.1,74 157.1,74 158.7,68.7 176.1,68.7 "/>
<polygon class="st2" points="182.3,52.8 163.5,52.8 165.4,46.6 182.3,46.6 "/>
<polygon class="st2" points="189.4,30.7 170.3,30.7 171.9,25.4 189.4,25.4 "/>
<g>
	<rect x="141.5" y="95.2" class="st12" width="229.1" height="131.2"/>
	<rect x="156.2" y="145.4" class="st8" width="49.2" height="66.1"/>
	<rect x="162.5" y="153.4" class="st12" width="28.5" height="14.7"/>
	<rect x="190.7" y="125.9" class="st21" width="140.4" height="86"/>
	<g class="st22">
		<rect x="146.3" y="211.2" class="st12" width="221.3" height="2"/>
	</g>
	<g class="st23">
		<rect x="171.9" y="211.2" class="st12" width="84.9" height="2"/>
	</g>
	<polygon class="st12" points="147.3,221.5 147.3,216.9 150.7,219.2 	"/>
	<polygon class="st12" points="159,221.2 159,217.2 162,219.2 	"/>
	<rect x="170.1" y="218.1" class="st12" width="1.7" height="2.1"/>
	<rect x="348.1" y="217.1" class="st24" width="5.4" height="4.3"/>
	<polyline class="st24" points="358.8,218.7 358.8,217.1 360.3,217.1 	"/>
	<polyline class="st24" points="358.8,219.7 358.8,221.3 360.3,221.3 	"/>
	<polyline class="st24" points="362.8,218.7 362.8,217.1 361.3,217.1 	"/>
	<rect x="289.2" y="191.5" class="st25" width="24.9" height="15.5"/>
	<path class="st26" d="M307.4,198.2H296c-0.5,0-0.9-0.4-0.9-0.9l0,0c0-0.5,0.4-0.9,0.9-0.9h11.4c0.5,0,0.9,0.4,0.9,0.9l0,0
		C308.2,197.8,307.8,198.2,307.4,198.2z"/>
	<path class="st26" d="M310.7,202.6h-18c-0.5,0-0.9-0.4-0.9-0.9l0,0c0-0.5,0.4-0.9,0.9-0.9h18c0.5,0,0.9,0.4,0.9,0.9l0,0
		C311.5,202.2,311.1,202.6,310.7,202.6z"/>
	<polyline class="st24" points="362.8,219.7 362.8,221.3 361.3,221.3 	"/>
	<rect x="197.1" y="140.6" class="st8" width="128.9" height="41.2"/>
	<rect x="211.9" y="173.3" class="st12" width="98.2" height="14.7"/>
	<g>
		<path class="st27" d="M354.9,211.2v-51.8c0-4.1-3.4-7.3-7.3-7.3h-32.8c-4.1,0-7.3,3.4-7.3,7.3v51.8H354.9z"/>
		<path class="st12" d="M352.1,211.1v-51.3c0-0.1,0-0.1,0-0.2c-0.1-2.5-2.2-4.5-4.7-4.5h-32.2c-2.5,0-4.6,2-4.7,4.5
			c0,0.1,0,0.1,0,0.2v51.3H352.1z"/>
		<path class="st27" d="M340,158.2h-17.6c-1.6,0-2.9-1.3-2.9-2.9v-1.8h23.3v1.8C342.9,156.9,341.5,158.2,340,158.2z"/>
	</g>
	<rect x="190.9" y="126" class="st27" width="140.1" height="7.6"/>
	<path class="st28" d="M346.5,184.1h-30.9c-0.6,0-1-0.4-1-1v-16.5c0-0.6,0.4-1,1-1h30.9c0.6,0,1,0.4,1,1v16.5
		C347.5,183.7,347,184.1,346.5,184.1z"/>
	<path class="st28" d="M346.5,206.7h-30.9c-0.6,0-1-0.4-1-1v-16.9c0-0.6,0.4-1,1-1h30.9c0.6,0,1,0.4,1,1v16.9
		C347.5,206.2,347,206.7,346.5,206.7z"/>
	<path class="st25" d="M259.9,183.3h-32c-1.5,0-2.7-1.2-2.7-2.7l0,0c0-1.5,1.2-2.7,2.7-2.7h32c1.5,0,2.7,1.2,2.7,2.7l0,0
		C262.6,182.1,261.4,183.3,259.9,183.3z"/>
	<path class="st26" d="M333.7,174.4h-11.4c-0.5,0-0.9-0.4-0.9-0.9v0c0-0.5,0.4-0.9,0.9-0.9h11.4c0.5,0,0.9,0.4,0.9,0.9v0
		C334.6,174,334.2,174.4,333.7,174.4z"/>
	<path class="st26" d="M340,178.7h-18c-0.5,0-0.9-0.4-0.9-0.9l0,0c0-0.5,0.4-0.9,0.9-0.9h18c0.5,0,0.9,0.4,0.9,0.9l0,0
		C340.9,178.4,340.5,178.7,340,178.7z"/>
	<path class="st26" d="M332.9,196.4h-11.4c-0.5,0-0.9-0.4-0.9-0.9v0c0-0.5,0.4-0.9,0.9-0.9h11.4c0.5,0,0.9,0.4,0.9,0.9v0
		C333.8,196,333.4,196.4,332.9,196.4z"/>
	<path class="st26" d="M339.2,200.8h-18c-0.5,0-0.9-0.4-0.9-0.9l0,0c0-0.5,0.4-0.9,0.9-0.9h18c0.5,0,0.9,0.4,0.9,0.9l0,0
		C340.1,200.4,339.7,200.8,339.2,200.8z"/>
	<path class="st25" d="M302.2,183.3h-32.1c-1.5,0-2.6-1.2-2.6-2.6l0,0c0-1.5,1.2-2.6,2.6-2.6h32.1c1.5,0,2.6,1.2,2.6,2.6l0,0
		C304.8,182.1,303.6,183.3,302.2,183.3z"/>
	<path class="st25" d="M218.9,183.2h-0.3c-1.4,0-2.6-1.2-2.6-2.6l0,0c0-1.4,1.2-2.6,2.6-2.6h0.3c1.4,0,2.6,1.2,2.6,2.6l0,0
		C221.5,182.1,220.3,183.2,218.9,183.2z"/>
	<path class="st25" d="M190.8,163.5h-12.2c-1.5,0-2.7-1.2-2.7-2.7l0,0c0-1.5,1.2-2.7,2.7-2.7h12.2V163.5z"/>
	<path class="st25" d="M169.5,163.4h-0.3c-1.4,0-2.6-1.2-2.6-2.6l0,0c0-1.4,1.2-2.6,2.6-2.6h0.3c1.4,0,2.6,1.2,2.6,2.6l0,0
		C172.1,162.2,170.9,163.4,169.5,163.4z"/>
	<rect x="198.9" y="191.5" class="st28" width="24.9" height="15.5"/>
	<path class="st26" d="M217.1,198.2h-11.4c-0.5,0-0.9-0.4-0.9-0.9l0,0c0-0.5,0.4-0.9,0.9-0.9h11.4c0.5,0,0.9,0.4,0.9,0.9l0,0
		C217.9,197.8,217.6,198.2,217.1,198.2z"/>
	<path class="st26" d="M220.4,202.6h-18c-0.5,0-0.9-0.4-0.9-0.9l0,0c0-0.5,0.4-0.9,0.9-0.9h18c0.5,0,0.9,0.4,0.9,0.9l0,0
		C221.3,202.2,220.9,202.6,220.4,202.6z"/>
	<rect x="162.4" y="172.7" class="st12" width="28.4" height="15.5"/>
	<path class="st25" d="M177.6,179.4h-11.4c-0.5,0-0.9-0.4-0.9-0.9l0,0c0-0.5,0.4-0.9,0.9-0.9h11.4c0.5,0,0.9,0.4,0.9,0.9l0,0
		C178.4,179,178,179.4,177.6,179.4z"/>
	<path class="st25" d="M190.8,183.7h-24.9c-0.5,0-0.9-0.4-0.9-0.9l0,0c0-0.5,0.4-0.9,0.9-0.9h24.9V183.7z"/>
	<rect x="162.4" y="192.1" class="st12" width="28.3" height="15.5"/>
	<path class="st25" d="M177.6,198.8h-11.4c-0.5,0-0.9-0.4-0.9-0.9l0,0c0-0.5,0.4-0.9,0.9-0.9h11.4c0.5,0,0.9,0.4,0.9,0.9l0,0
		C178.4,198.4,178,198.8,177.6,198.8z"/>
	<path class="st25" d="M190.7,203.1h-24.8c-0.5,0-0.9-0.4-0.9-0.9l0,0c0-0.5,0.4-0.9,0.9-0.9h24.8V203.1z"/>
	<rect x="228.8" y="191.5" class="st29" width="24.9" height="15.5"/>
	<path class="st26" d="M247,198.2h-11.4c-0.5,0-0.9-0.4-0.9-0.9l0,0c0-0.5,0.4-0.9,0.9-0.9H247c0.5,0,0.9,0.4,0.9,0.9l0,0
		C247.8,197.8,247.4,198.2,247,198.2z"/>
	<path class="st26" d="M250.3,202.6h-18c-0.5,0-0.9-0.4-0.9-0.9l0,0c0-0.5,0.4-0.9,0.9-0.9h18c0.5,0,0.9,0.4,0.9,0.9l0,0
		C251.1,202.2,250.7,202.6,250.3,202.6z"/>
	<rect x="258.9" y="191.5" class="st30" width="24.9" height="15.5"/>
	<path class="st26" d="M277,198.2h-11.4c-0.5,0-0.9-0.4-0.9-0.9l0,0c0-0.5,0.4-0.9,0.9-0.9H277c0.5,0,0.9,0.4,0.9,0.9l0,0
		C277.9,197.8,277.5,198.2,277,198.2z"/>
	<path class="st26" d="M280.3,202.6h-18c-0.5,0-0.9-0.4-0.9-0.9l0,0c0-0.5,0.4-0.9,0.9-0.9h18c0.5,0,0.9,0.4,0.9,0.9l0,0
		C281.2,202.2,280.8,202.6,280.3,202.6z"/>
	<line class="st31" x1="213.1" y1="129.7" x2="325" y2="129.7"/>
	<g class="st32">
		<g>
			<g>
				<path class="st12" d="M194.5,130.9c-0.1,0-0.2,0-0.3-0.1c-0.2-0.2-0.2-0.4,0-0.5l1.7-1.7c0.2-0.2,0.4-0.2,0.5,0
					c0.2,0.2,0.2,0.4,0,0.5l-1.7,1.7C194.7,130.9,194.6,130.9,194.5,130.9z"/>
			</g>
			<g>
				<path class="st12" d="M196.3,130.9c-0.1,0-0.2,0-0.3-0.1l-1.7-1.7c-0.2-0.2-0.2-0.4,0-0.5s0.4-0.2,0.5,0l1.7,1.7
					c0.2,0.2,0.2,0.4,0,0.5C196.4,130.9,196.4,130.9,196.3,130.9z"/>
			</g>
		</g>
		<g>
			<path class="st12" d="M202.2,130.3h-2.7c-0.3,0-0.5-0.3-0.5-0.5c0-0.3,0.3-0.5,0.5-0.5h2.7c0.3,0,0.5,0.3,0.5,0.5
				S202.6,130.3,202.2,130.3z"/>
		</g>
		<path class="st12" d="M206.4,128.2c-0.8,0-1.5,0.7-1.5,1.5s0.7,1.5,1.5,1.5s1.5-0.7,1.5-1.5S207.2,128.2,206.4,128.2z
			 M206.4,130.4c-0.4,0-0.7-0.3-0.7-0.7c0-0.4,0.3-0.7,0.7-0.7c0.4,0,0.7,0.3,0.7,0.7C207.1,130.1,206.8,130.4,206.4,130.4z"/>
	</g>
</g>
<g>
	
		<linearGradient id="SVGID_2_" gradientUnits="userSpaceOnUse" x1="256.5477" y1="378.5564" x2="256.5477" y2="357.1564" gradientTransform="matrix(1 0 0 1 0 -151.99)">
		<stop  offset="0.12" style="stop-color:#2A333A;stop-opacity:0.94"/>
		<stop  offset="0.29" style="stop-color:#2D363D;stop-opacity:0.74"/>
		<stop  offset="0.41" style="stop-color:#363F45;stop-opacity:0.6"/>
		<stop  offset="0.51" style="stop-color:#454E54;stop-opacity:0.48"/>
		<stop  offset="0.6" style="stop-color:#5B6369;stop-opacity:0.37"/>
		<stop  offset="0.69" style="stop-color:#787F84;stop-opacity:0.26"/>
		<stop  offset="0.78" style="stop-color:#9BA1A5;stop-opacity:0.16"/>
		<stop  offset="0.86" style="stop-color:#C3C8CC;stop-opacity:7.000000e-02"/>
		<stop  offset="0.92" style="stop-color:#E8ECEF;stop-opacity:0"/>
	</linearGradient>
	<rect x="141.7" y="205.2" class="st33" width="229.7" height="21.4"/>
	<g class="st22">
		<rect x="146.4" y="212.5" class="st12" width="221.3" height="2"/>
	</g>
	<g class="st23">
		<rect x="172" y="212.5" class="st12" width="84.9" height="2"/>
	</g>
	<rect x="146.4" y="212.5" class="st34" width="59.7" height="2"/>
	<polygon class="st12" points="147.4,222.8 147.4,218.2 150.8,220.5 	"/>
	<polygon class="st12" points="159.1,222.5 159.1,218.5 162.1,220.5 	"/>
	<rect x="161.7" y="218.5" class="st12" width="0.8" height="4"/>
	<rect x="170.2" y="219.4" class="st12" width="1.7" height="2.1"/>
	<polygon class="st12" points="173.4,222.9 171.6,221.5 171.6,219.6 173.4,218.1 	"/>
	<path class="st12" d="M173.9,219v2.8c0.5-0.2,0.9-0.8,0.8-1.5C174.8,219.9,174.4,219.4,173.9,219z"/>
	<text transform="matrix(0.95 0 0 1 181.6258 222.4179)" class="st35 st36 st37">10:03 / 20:31</text>
	<rect x="348.2" y="218.4" class="st24" width="5.4" height="4.3"/>
	<polyline class="st24" points="358.9,220 358.9,218.4 360.4,218.4 	"/>
	<polyline class="st24" points="358.9,221 358.9,222.6 360.4,222.6 	"/>
	<polyline class="st24" points="362.9,220 362.9,218.4 361.4,218.4 	"/>
	<polyline class="st24" points="362.9,221 362.9,222.6 361.4,222.6 	"/>
	<circle class="st34" cx="206.2" cy="213.6" r="2.2"/>
</g>
</svg>
