<svg id="Layer_1" data-name="Layer 1" xmlns="http://www.w3.org/2000/svg" viewBox="0 0 205.62 195.74"><defs><style>.cls-1{fill:#0b8295;}.cls-2{fill:#40aacf;}.cls-3{fill:#fff;}.cls-4{fill:#dbb9c5;}.cls-5{fill:#dcb9c5;}.cls-6{fill:#cc2b1e;}.cls-7{fill:#1cc1d8;}</style></defs><title>icon-Users-</title><path class="cls-1" d="M115.28,156.08l-33.5-24.52L68,157.46l-10.14-5.78,15.77-34.5a8.92,8.92,0,0,1,11.79-4.49l.6.3,37.09,19.94Z"/><path class="cls-2" d="M153.56,143.52v2.79a16,16,0,0,1-15.95,15.95h0l-42.07-.6H38l-.8-7.17,33.46-4.58,7.58-1.19,37.69-5.18Z"/><path class="cls-3" d="M115.28,80.29H141a18.36,18.36,0,0,1,16.15,9.37l10,22.17a25.91,25.91,0,0,1,2.39,11V156.1h-12V122l-4-11.36v36.49H114.08l-2.79-46.64L92.75,117.6a8.49,8.49,0,0,1-13.52-2L62.88,84.07,71,79.16l14.36,23.33,16.55-16.79A19.55,19.55,0,0,1,115.28,80.29Z"/><path class="cls-4" d="M109.29,51c-.2-7.17,7.38-15.77,17.55-15.95a18.34,18.34,0,0,1,15.35,8.77l.39.6a17.38,17.38,0,0,1,1.79,14.36L139.2,71.55l-.39,8.57-.2.2a10.54,10.54,0,0,1-14.55-.2h0l.39-9.17h-6.76a8.68,8.68,0,0,1-8.57-8.77h0v-4Z"/><path d="M136,54.19l-4.56-9.95-6.58,2.2a19.47,19.47,0,0,1-15-1.19h0c0-6.58,5.78-12.76,9.37-14.55a19.79,19.79,0,0,1,13.52-1.6h0a19.65,19.65,0,0,1,13.52,26.12,98.82,98.82,0,0,1-5.78,13.16Z"/><path class="cls-4" d="M131.45,55.78a4.38,4.38,0,1,0,4.38-4.38h0a4.3,4.3,0,0,0-4.38,4.22Q131.45,55.7,131.45,55.78Z"/><path class="cls-3" d="M116.48,61.77a3.79,3.79,0,1,0,7.58,0"/><path class="cls-5" d="M158.15,173.43h0a1.79,1.79,0,0,1-1.79-1.79v-8.18l3.78-2.79v10.77A2.14,2.14,0,0,1,158.15,173.43Z"/><path class="cls-5" d="M161.94,175.22h0a1.79,1.79,0,0,1-1.79-1.79l-.2-12.56h3.78l.2,12.56A2.12,2.12,0,0,1,161.94,175.22Z"/><path class="cls-5" d="M165.53,173.43h0a1.79,1.79,0,0,1-1.79-1.79V160.87h3.75v10.77A2.12,2.12,0,0,1,165.53,173.43Z"/><path class="cls-5" d="M169.32,168.44h0a1.79,1.79,0,0,1-1.79-1.79v-5.78h3.78v5.78A2.34,2.34,0,0,1,169.32,168.44Z"/><path class="cls-5" d="M171.11,163.06v-3.59l-1.36-3.19-9.77-.2-.2.2a11,11,0,0,0-3.38,8.38h-.2Z"/><path class="cls-4" d="M70.81,79.31l-1-7.17V66.35a1.58,1.58,0,0,0-1.55-1.6h0a1.53,1.53,0,0,0-1.6,1.79L67,72.93,56.05,80.29l7,3.78Z"/><path d="M65.35,81.24H51.27a1.89,1.89,0,0,1-1.94-1.84s0-.06,0-.1V76l1.94-11.36L49.33,54.42V52.2a1.89,1.89,0,0,1,1.84-1.94H65.35a1.89,1.89,0,0,1,1.94,1.84s0,.06,0,.1v2.22L65.07,64.66,67.29,76.3v3.05a1.89,1.89,0,0,1-1.89,1.89Z"/><rect class="cls-6" x="49.29" y="54.42" width="17.72" height="21.6"/><rect x="130.44" y="43.02" width="4.38" height="16.35"/><polygon class="cls-3" points="55.67 69.37 55.67 60.78 62.3 65.21 55.67 69.37"/><polygon class="cls-6" points="149.57 43.02 155.16 43.02 153.37 37.84 153.37 27.87 151.37 27.87 151.37 37.84 149.57 43.02"/><path class="cls-3" d="M59.65,78.71a1.21,1.21,0,1,1-1.21-1.21h0A1.21,1.21,0,0,1,59.65,78.71Z"/><rect class="cls-1" x="110.49" y="26.87" width="35.69" height="12.96"/><polygon class="cls-7" points="127.64 37.84 156.76 27.87 127.64 15.91 98.73 27.87 127.64 37.84"/><path d="M38.31,162.06l-7.38,3.83-.86-23h0a5.72,5.72,0,0,1,4.38,6.18l-.39,2.79a2.64,2.64,0,0,0,3.9,2.39h0Z"/></svg>