<svg id="Layer_1" data-name="Layer 1" xmlns="http://www.w3.org/2000/svg" viewBox="0 0 205.62 195.74"><defs><style>.cls-1{fill:#302c2e;}.cls-2,.cls-5{fill:#494949;}.cls-3{fill:#cc2b1e;}.cls-4{fill:#fff;}.cls-5{opacity:0.1;}.cls-6{fill:#ccacb9;}.cls-7{fill:#b7130b;}.cls-8{fill:#1cc1d8;}.cls-9{fill:#0b8295;}.cls-10{fill:#dbb9c5;}</style></defs><title>icon-user2</title><path class="cls-1" d="M142.78,78.85l1.87,49.63H65.36l1.87-49.63Z"/><path class="cls-2" d="M144.65,128.48l-1.87-49.63H69.59a35.57,35.57,0,0,0,61.76,20.47,3.12,3.12,0,0,1,5.41,2l1,27.16Z"/><path class="cls-3" d="M125.37,123.32l7.4,2.06-9.35,49H86.58l-9.35-49,7.4-2.06a12.62,12.62,0,0,1,3.34-.45H122A12.57,12.57,0,0,1,125.37,123.32Z"/><path class="cls-4" d="M150.4,130.27l-17.62-4.89-9.36,49h42.14a3.12,3.12,0,0,0,3.12-3.12V154.33A25,25,0,0,0,150.4,130.27Z"/><path class="cls-5" d="M150.4,130.27l-2-.56a25,25,0,0,1,8.76,19v25.67h8.43a3.12,3.12,0,0,0,3.12-3.12V154.33A25,25,0,0,0,150.4,130.27Z"/><path class="cls-4" d="M59.61,130.27l17.62-4.89,9.36,49H44.45a3.12,3.12,0,0,1-3.12-3.12V154.33A25,25,0,0,1,59.61,130.27Z"/><path class="cls-6" d="M116.24,122.86l-8.78,11.22a3.12,3.12,0,0,1-4.92,0l-8.78-11.22V97.27h22.48Z"/><path class="cls-2" d="M134.35,52.94h8.12V65.43h-8.12Z"/><path class="cls-3" d="M164.39,53.57a6.63,6.63,0,0,0-4.29-6.2V20.79a2.34,2.34,0,0,0-4.68,0V47.37a6.62,6.62,0,0,0,0,12.4v6.29a2.34,2.34,0,0,0,4.68,0V59.77A6.63,6.63,0,0,0,164.39,53.57Z"/><path class="cls-7" d="M161.51,48.1a6.63,6.63,0,0,1-9.22,9.22,6.63,6.63,0,1,0,9.22-9.22Z"/><path class="cls-8" d="M162.44,18.45H47.57a2.34,2.34,0,1,0,0,4.68h20V52.94h74.92V23.13h20a2.34,2.34,0,1,0,0-4.68Z"/><path class="cls-9" d="M136.53,23.13V42.8c0,1.11-2.8,3.9-6.24,3.9H67.55v6.24h74.92V23.13Z"/><path class="cls-1" d="M67.55,52.94h8.12V65.43H67.55Z"/><path class="cls-10" d="M105,52.94H75.66V75.42a29.34,29.34,0,1,0,58.68,0V52.94Z"/><path class="cls-6" d="M125.61,52.94V75.42a29.35,29.35,0,0,1-25,29,29.37,29.37,0,0,0,33.71-29V52.94Z"/><path class="cls-10" d="M71,80.1h6.24V63.24H71a6.24,6.24,0,0,0-6.24,6.24v4.37A6.24,6.24,0,0,0,71,80.1Z"/><path class="cls-6" d="M139,80.1h-6.24V63.24H139a6.24,6.24,0,0,1,6.24,6.24v4.37A6.24,6.24,0,0,1,139,80.1Z"/><path class="cls-9" d="M142.62,174.37v-9.68a2.34,2.34,0,1,1,4.68,0v9.68Z"/><path class="cls-9" d="M62.71,174.37v-9.68a2.34,2.34,0,1,1,4.68,0v9.68Z"/><path class="cls-4" d="M95.32,83.83a8.46,8.46,0,1,0,16.91,0"/></svg>