<svg id="Слой_1" data-name="Слой 1" xmlns="http://www.w3.org/2000/svg" xmlns:xlink="http://www.w3.org/1999/xlink" viewBox="0 0 640 476"><defs><style>.cls-1{fill:none;}.cls-2{fill:#aadfe8;}.cls-3{fill:#2fb4d3;}.cls-4{fill:#007ea6;}.cls-5{fill:#035b70;}.cls-6{fill:#328ca5;}.cls-7{fill:#2c7c84;}.cls-7,.cls-9{opacity:0.6;isolation:isolate;}.cls-8{fill:#f5f9fa;}.cls-15,.cls-9{fill:#76cee5;}.cls-10{fill:#34c9e2;}.cls-11{fill:#88e9ff;}.cls-12{fill:#fff;}.cls-13{clip-path:url(#clip-path);}.cls-14{fill:#bc8ecc;}.cls-16{fill:#f7d203;}.cls-17{fill:#1f87ad;}.cls-18{fill:#fe6161;}</style><clipPath id="clip-path"><path class="cls-1" d="M466.71,86.33h-299c-16.11,0-29.29,13.5-29.29,30V310.62H496V116.33C496,99.83,482.82,86.33,466.71,86.33Z"/></clipPath></defs><title>404_6-01</title><path class="cls-2" d="M601.21,228.2C602,134.75,437.53,127.58,403.68,83.83,357,23.47,238,8.4,198.93,8.19,62,7.46,26.63,111.72,26.63,197.2c0,88.61,94.65,130.15,121.25,154.19,23.3,21.07,25.45,113.36,186.5,113.36,72.41,0,75.12-46.74,135.6-74.91C557.37,349.14,600.45,319.85,601.21,228.2Z"/><path class="cls-3" d="M356.19,368.06c-0.75,13.82.75,42.49,24.9,50.79H253.32c25.21-5.76,26.7-33.17,25.51-48.29"/><path class="cls-3" d="M473.15,57.49H161.27A48.43,48.43,0,0,0,113,105.78V322.27a48.43,48.43,0,0,0,48.29,48.29H473.15a48.43,48.43,0,0,0,48.29-48.29V105.78A48.43,48.43,0,0,0,473.15,57.49Z"/><circle class="cls-4" cx="317.21" cy="70.73" r="3.93"/><circle class="cls-5" cx="317.21" cy="70.73" r="2.51"/><path class="cls-6" d="M356.19,370.06l-77.36.5a145.87,145.87,0,0,1-.13,15.19s13.55,8.25,41.3-.25c25.35-7.76,37,.25,37,0.25A68.62,68.62,0,0,1,356.19,370.06Z"/><path class="cls-7" d="M325.67,372.33c20.51-.06,30.39,1.48,30.41.42,0-.9.06-1.79,0.11-2.69l-77.36.5c0.08,1,.11,1.86.19,2.77,0,0.23,0,.86.06,2"/><circle class="cls-8" cx="317.21" cy="336.79" r="9.99"/><circle class="cls-3" cx="317.21" cy="336.79" r="6.99"/><path class="cls-9" d="M316.88,339.16c-3.86,0-6.52-4-6.27-4.67a7,7,0,0,1,13.25.14C324.08,335.3,320.74,339.16,316.88,339.16Z"/><rect class="cls-10" x="250.38" y="418.85" width="133.63" height="9.15" rx="4.57" ry="4.57"/><path class="cls-11" d="M331.08,421.5c-38.67,3.31-80.71,4.44-80.71,1.93h0a4.59,4.59,0,0,1,4.57-4.57H379.43a4.59,4.59,0,0,1,4.57,4.57h0C384,425.94,354.1,419.53,331.08,421.5Z"/><path class="cls-12" d="M466.71,86.33h-299c-16.11,0-29.29,13.5-29.29,30V310.62H496V116.33C496,99.83,482.82,86.33,466.71,86.33Z"/><rect class="cls-8" x="138.42" y="82" width="357.58" height="228.62" rx="30" ry="30"/><g class="cls-13"><path class="cls-2" d="M516.63,281.74c0,51.51-87,93.26-194.43,93.26s-194.43-41.76-194.43-93.26,101.81-37.62,194.43-93.26C434.39,121.08,516.63,230.23,516.63,281.74Z"/></g><circle class="cls-14" cx="217.21" cy="103.97" r="4.54"/><circle class="cls-14" cx="192.21" cy="103.97" r="4.54"/><circle class="cls-14" cx="167.21" cy="103.97" r="4.54"/><rect class="cls-15" x="138.42" y="310.62" width="357.58" height="2.1"/><rect class="cls-16" x="257.03" y="167.55" width="53.11" height="123.83" rx="5" ry="5"/><rect class="cls-16" x="257.03" y="262.5" width="53.11" height="28.88"/><rect class="cls-17" x="189.11" y="199.03" width="53.11" height="92.35" rx="5" ry="5"/><rect class="cls-17" x="189.11" y="262.5" width="53.11" height="28.88"/><rect class="cls-17" x="392.89" y="142.31" width="53.11" height="149.38" rx="5" ry="5"/><rect class="cls-17" x="392.89" y="268" width="53.11" height="23.38"/><rect class="cls-18" x="324.97" y="206.41" width="53.11" height="84.97" rx="5" ry="5"/><rect class="cls-18" x="324.97" y="268" width="53.11" height="23.38"/><rect class="cls-8" x="189.11" y="214.15" width="53.11" height="5.71"/><rect class="cls-8" x="257.03" y="183.74" width="53.11" height="5.71"/><rect class="cls-8" x="324.97" y="222.6" width="53.11" height="5.71"/><rect class="cls-8" x="392.89" y="156.03" width="53.11" height="5.71"/></svg>