<svg id="Слой_1" data-name="Слой 1" xmlns="http://www.w3.org/2000/svg" xmlns:xlink="http://www.w3.org/1999/xlink" viewBox="0 0 401.5 268"><defs><style>.cls-1,.cls-10,.cls-11,.cls-12,.cls-13,.cls-14,.cls-17,.cls-20,.cls-22,.cls-24,.cls-25,.cls-26,.cls-4,.cls-5,.cls-8,.cls-9{fill:none;}.cls-2{fill:url(#Безымянный_градиент);}.cls-3{fill:url(#Безымянный_градиент_2);}.cls-10,.cls-11,.cls-12,.cls-13,.cls-14,.cls-17,.cls-20,.cls-22,.cls-24,.cls-25,.cls-26,.cls-4,.cls-5,.cls-8,.cls-9{stroke-miterlimit:10;}.cls-4{stroke-width:3px;stroke:url(#Безымянный_градиент_3);}.cls-10,.cls-5{stroke-linecap:round;stroke-width:1.5px;}.cls-5{stroke:url(#Безымянный_градиент_45);}.cls-6{fill:url(#Безымянный_градиент_46);}.cls-7{fill:url(#Безымянный_градиент_46-2);}.cls-11,.cls-8{stroke-width:4px;}.cls-8{stroke:url(#Безымянный_градиент_47);}.cls-12,.cls-13,.cls-17,.cls-20,.cls-9{stroke-width:2px;}.cls-9{stroke:url(#Безымянный_градиент_48);}.cls-10{stroke:url(#Безымянный_градиент_49);}.cls-11{stroke:url(#Безымянный_градиент_50);}.cls-12,.cls-13,.cls-14,.cls-17,.cls-20{stroke-dasharray:3 3 3 2;}.cls-12{stroke:url(#Безымянный_градиент_74);}.cls-13{stroke:url(#Безымянный_градиент_74-2);}.cls-14{stroke:url(#Безымянный_градиент_74-3);}.cls-15{fill:url(#Безымянный_градиент_74-4);}.cls-16{fill:url(#Безымянный_градиент_74-5);}.cls-17{stroke:url(#Безымянный_градиент_74-6);}.cls-18{fill:url(#Безымянный_градиент_75);}.cls-19{fill:url(#Безымянный_градиент_75-2);}.cls-20{stroke:url(#Безымянный_градиент_74-7);}.cls-21{clip-path:url(#clip-path);}.cls-22{stroke:url(#Безымянный_градиент_74-8);}.cls-23{clip-path:url(#clip-path-2);}.cls-24{stroke:url(#Безымянный_градиент_46-3);}.cls-25{stroke:url(#Безымянный_градиент_74-9);}.cls-26{stroke:url(#Безымянный_градиент_74-10);}</style><linearGradient id="Безымянный_градиент" x1="254.84" y1="44.42" x2="254.84" y2="6.45" gradientTransform="matrix(1, 0, 0, -1, 0, 270)" gradientUnits="userSpaceOnUse"><stop offset="0.52" stop-color="#21a8cf"/><stop offset="1" stop-color="#2c96c4"/></linearGradient><linearGradient id="Безымянный_градиент_2" x1="257.87" y1="37.22" x2="257.87" y2="34.89" xlink:href="#Безымянный_градиент"/><linearGradient id="Безымянный_градиент_3" x1="250.86" y1="-137.64" x2="250.86" y2="-154.7" gradientTransform="matrix(1, 0, 0, -1, 0, 59)" xlink:href="#Безымянный_градиент"/><linearGradient id="Безымянный_градиент_45" x1="254.86" y1="42.75" x2="254.86" y2="41.25" gradientTransform="matrix(1, 0, 0, -1, 0, 59)" xlink:href="#Безымянный_градиент"/><linearGradient id="Безымянный_градиент_46" x1="144.29" y1="201.85" x2="144.29" y2="7.55" gradientTransform="matrix(1, 0, 0, -1, 0, 270)" gradientUnits="userSpaceOnUse"><stop offset="0" stop-color="#15bcda"/><stop offset="1" stop-color="#2c96c4"/></linearGradient><linearGradient id="Безымянный_градиент_46-2" x1="104.29" y1="201.85" x2="104.29" y2="7.55" gradientTransform="translate(248.58 270) rotate(180)" xlink:href="#Безымянный_градиент_46"/><linearGradient id="Безымянный_градиент_47" x1="143.01" y1="-30.97" x2="143.01" y2="-34.97" gradientTransform="matrix(1, 0, 0, -1, 0, 59)" xlink:href="#Безымянный_градиент"/><linearGradient id="Безымянный_градиент_48" x1="144.07" y1="-181.05" x2="144.07" y2="-192.89" gradientTransform="matrix(1, 0, 0, -1, 0, 59)" xlink:href="#Безымянный_градиент"/><linearGradient id="Безымянный_градиент_49" x1="144.07" y1="-21.3" x2="144.07" y2="-22.8" gradientTransform="matrix(1, 0, 0, -1, 0, 59)" xlink:href="#Безымянный_градиент"/><linearGradient id="Безымянный_градиент_50" x1="144.23" y1="-170.02" x2="144.23" y2="-174.02" gradientTransform="matrix(1, 0, 0, -1, 0, 59)" xlink:href="#Безымянный_градиент"/><linearGradient id="Безымянный_градиент_74" x1="49.17" y1="154.5" x2="49.17" y2="262.1" gradientTransform="matrix(1, 0, 0, 1, 0, 0)" xlink:href="#Безымянный_градиент_46"/><linearGradient id="Безымянный_градиент_74-2" x1="25.96" y1="155.63" x2="25.96" y2="259.54" gradientTransform="matrix(1, 0, 0, 1, 0, 0)" xlink:href="#Безымянный_градиент_46"/><linearGradient id="Безымянный_градиент_74-3" x1="15.04" y1="199.73" x2="15.04" y2="216.31" gradientTransform="matrix(1, 0, 0, 1, 0, 0)" xlink:href="#Безымянный_градиент_46"/><linearGradient id="Безымянный_градиент_74-4" x1="211.32" y1="263.82" x2="211.32" y2="199.85" xlink:href="#Безымянный_градиент_46"/><linearGradient id="Безымянный_градиент_74-5" x1="254.71" y1="44.87" x2="254.71" y2="40.21" xlink:href="#Безымянный_градиент_46"/><linearGradient id="Безымянный_градиент_74-6" x1="354.49" y1="7.42" x2="354.49" y2="228.55" gradientTransform="matrix(1, 0, 0, 1, 0, 0)" xlink:href="#Безымянный_градиент_46"/><linearGradient id="Безымянный_градиент_75" x1="218.7" y1="246.75" x2="218.7" y2="199.85" xlink:href="#Безымянный_градиент_46"/><linearGradient id="Безымянный_градиент_75-2" x1="255.01" y1="184.74" x2="255.01" y2="180.08" gradientTransform="matrix(1, 0, 0, 1, 0, 0)" xlink:href="#Безымянный_градиент_46"/><linearGradient id="Безымянный_градиент_74-7" x1="347.82" y1="23.86" x2="347.82" y2="184.13" gradientTransform="matrix(1, 0, 0, 1, 0, 0)" xlink:href="#Безымянный_градиент_46"/><clipPath id="clip-path"><path class="cls-1" d="M197.09,180.09H367.57a13,13,0,0,0,13-13h0V40.92a13,13,0,0,0-13-13H142.15a13,13,0,0,0-13,13V70.15H179.1l18,109.94h0Z"/></clipPath><linearGradient id="Безымянный_градиент_74-8" x1="310.09" y1="45.02" x2="310.09" y2="226.13" gradientTransform="matrix(1, 0, 0, 1, 0, 0)" xlink:href="#Безымянный_градиент_46"/><clipPath id="clip-path-2"><polygon class="cls-1" points="93 92.42 93 121.64 94.27 231.59 194.75 231.59 194.75 92.42 93 92.42"/></clipPath><linearGradient id="Безымянный_градиент_46-3" x1="174.77" y1="119.07" x2="174.77" y2="241.1" gradientTransform="matrix(1, 0, 0, 1, 0, 0)" xlink:href="#Безымянный_градиент_46"/><linearGradient id="Безымянный_градиент_74-9" x1="63.54" y1="147.58" x2="63.54" y2="103.5" gradientTransform="matrix(1, 0, 0, 1, 0, 0)" xlink:href="#Безымянный_градиент_46"/><linearGradient id="Безымянный_градиент_74-10" x1="42.62" y1="148.35" x2="42.62" y2="141.9" gradientTransform="matrix(1, 0, 0, 1, 0, 0)" xlink:href="#Безымянный_градиент_46"/></defs><title>resolution-02-01-01</title><path class="cls-2" d="M316.84,263.55h-124L213,259c15.81-3.61,16.83-21.17,16-31.32l4.65-.36c0.72,9.21,0,23.76-9.79,31.62H294c-10.8-9.09-11.31-25.65-10.89-33.32l4.66,0.26c-0.56,10.17.76,28,15.85,33.19Z"/><rect class="cls-3" x="230.78" y="232.78" width="54.17" height="2.33"/><circle class="cls-4" cx="250.86" cy="205.17" r="7.03"/><line class="cls-5" x1="246.08" y1="17" x2="263.65" y2="17"/><path class="cls-6" d="M180.86,262.45H112.28l5-4h63.57a12.31,12.31,0,0,0,12.23-12.24V84.39a12.31,12.31,0,0,0-12.24-12.23H107.33a12.24,12.24,0,0,0-11.64,8.46L95.49,125h-4L91.7,80l0.08-.28a16.22,16.22,0,0,1,15.54-11.57h73.54a16.32,16.32,0,0,1,16.23,16.23V246.21A16.32,16.32,0,0,1,180.86,262.45Z"/><path class="cls-7" d="M91.49,246.21V84.38a16.32,16.32,0,0,1,16.23-16.23h73.54A16.22,16.22,0,0,1,196.8,79.72L196.88,80l0.21,45h-4l-0.2-44.38a12.24,12.24,0,0,0-11.64-8.46H107.74A12.31,12.31,0,0,0,95.5,84.39V246.21a12.31,12.31,0,0,0,12.23,12.24H171.3l5,4H107.72A16.32,16.32,0,0,1,91.49,246.21Z"/><line class="cls-8" x1="93.05" y1="91.97" x2="192.96" y2="91.97"/><circle class="cls-9" cx="144.07" cy="245.97" r="4.92"/><line class="cls-10" x1="135.28" y1="81.05" x2="152.86" y2="81.05"/><line class="cls-11" x1="95.5" y1="231.02" x2="192.96" y2="231.02"/><path class="cls-12" d="M91.49,155.5H18.37a16.36,16.36,0,0,0-2.35.2H14l-0.28.08A16.22,16.22,0,0,0,2.14,171.33v73.94a16.22,16.22,0,0,0,11.57,15.54L14,260.89h2a16.36,16.36,0,0,0,2.35.2H97.2"/><line class="cls-13" x1="25.96" y1="259.54" x2="25.96" y2="155.63"/><line class="cls-14" x1="15.04" y1="216.31" x2="15.04" y2="199.73"/><path class="cls-15" d="M312.92,6.18H145.81a36.14,36.14,0,0,0-36.1,36.1V70.15h4.66V42.29a31.48,31.48,0,0,1,31.44-31.44H312.92"/><path class="cls-16" d="M312.33,225.13H197.09v4.66H312.33"/><path class="cls-17" d="M310.86,227.55h50.88a35.42,35.42,0,0,0,35.38-35.38V43.8A35.42,35.42,0,0,0,361.74,8.42H312"/><path class="cls-18" d="M312.92,23.25H142.15a17.69,17.69,0,0,0-17.67,17.67V70.15h4.66V40.92a13,13,0,0,1,13-13H312.92"/><rect class="cls-19" x="197.09" y="180.08" width="115.83" height="4.66"/><path class="cls-20" d="M312,183.13h53.32a17.34,17.34,0,0,0,17.32-17.31V42.18a17.34,17.34,0,0,0-17.32-17.32H312"/><g class="cls-21"><path class="cls-22" d="M389,137v-3.28L400,129l-2-14.23-12.11-1.31q-1-3.36-2.24-6.72l8.64-8.16-6.72-12.71-11.7,2.94q-2.1-2.86-4.48-5.52l5.3-10.53-10.66-9.64-10,6.72q-3-2-6.08-3.71l1.37-11.66L336.08,49,329,58.87q-3.64-.87-7.41-1.4L318.1,45.53l-14.35.54-2.66,11.2q-3.46.43-6.83,1.12l-7.41-10.2-13.32,5.41,1.37,11.67q-3,1.55-5.87,3.36l-10.66-7.17-10.66,9.64,5.42,10.73q-2.24,2.4-4.25,5l-12.71-3.15-6.72,12.71,8.9,8.38q-1.22,2.92-2.24,5.93L223,112.23l-2,14.23,11.44,4.92a14.81,14.81,0,0,1-.07,1.71v4.48l-12.18,5.93,3,14,12.59,0.73q0.9,2.89,2,5.68l-9.51,9.88L236,186l12.22-3.71q1.78,2.36,3.75,4.58l-5.6,12.65,11.34,8.81,10.25-7.65q2.48,1.61,5.06,3L272,217.49l13.71,4.43,7-10.64q2.69,0.63,5.45,1.12l3,12.75,14.3,0.48,3.71-12.76q3-.34,6-0.9l7.1,10.82,13.67-4.4-0.84-13.05q2.81-1.39,5.5-3L360.89,210l11.32-8.83L367,189.41q2.24-2.32,4.28-4.82l12,3.6L391,176,382.22,167q1.36-3,2.46-6.21l12.22-.71,3-14-11.11-5.45C388.85,139.41,388.92,138.24,389,137Zm-18.14,13.05-21.29-9.84a39.57,39.57,0,0,0,.34-4.21,39,39,0,0,0-11.62-28.83l9.93-21.53a61.85,61.85,0,0,1,22.64,64.43h0ZM250.23,121.18l21.49,9.9c-0.1,1-.17,2-0.2,3a39.07,39.07,0,0,0,13.53,30.6l-9.79,21.29A62,62,0,0,1,250.23,121.18Zm48.68,13.56a11.74,11.74,0,1,1,11.45,12h0a11.74,11.74,0,0,1-11.44-12h0Zm17.6-38.41a39.48,39.48,0,0,0-4.87-.44A39.06,39.06,0,0,0,281.51,109l-21.29-9.84a61.88,61.88,0,0,1,66.11-24ZM307.37,174c0.74,0.07,1.53.11,2.31,0.13A39,39,0,0,0,339,162.1L360.48,172a61.86,61.86,0,0,1-63,23.63Z"/></g><g class="cls-23"><path class="cls-24" d="M227.76,181.07v-2.21l7.44-3.2-1.32-9.56-8.14-.88q-0.65-2.26-1.51-4.52l5.8-5.48-4.52-8.54-7.86,2q-1.41-1.92-3-3.71l3.56-7.08-7.16-6.47-6.72,4.52q-2-1.32-4.09-2.49l0.92-7.84-8.94-3.64-4.79,6.6q-2.45-.59-5-0.94l-2.31-8-9.64.36-1.78,7.53q-2.33.29-4.59,0.75l-5-6.85-9,3.64,0.92,7.84q-2,1-3.94,2.26L140,130.3l-7.16,6.47,3.64,7.21q-1.51,1.61-2.85,3.35l-8.54-2.12-4.52,8.54,6,5.63q-0.82,2-1.51,4l-8.85,1L114.91,174l7.69,3.3a10,10,0,0,1,0,1.15v3l-8.18,4,2,9.43,8.46,0.49q0.6,1.94,1.35,3.82l-6.39,6.64,5.14,8.15,8.21-2.49q1.2,1.59,2.52,3.08l-3.76,8.5,7.62,5.92,6.89-5.14q1.66,1.08,3.4,2l-0.63,9.27,9.21,3,4.7-7.15q1.81,0.42,3.66.75l2,8.57,9.61,0.32,2.49-8.57q2-.23,4.05-0.6l4.77,7.27,9.18-3L198.35,227q1.89-.93,3.7-2l6.87,5.12,7.6-5.93L213,216.26q1.51-1.56,2.88-3.24l8.06,2.42,5.13-8.17-5.87-6.1q0.91-2,1.66-4.17l8.21-.47,2-9.41-7.47-3.66C227.69,182.67,227.74,181.88,227.76,181.07Zm-12.19,8.77-14.3-6.61a26.59,26.59,0,0,0,.23-2.83A26.23,26.23,0,0,0,193.69,161l6.67-14.47a41.56,41.56,0,0,1,15.21,43.29h0Zm-81-19.42L149,177.07c-0.07.65-.11,1.33-0.14,2A26.25,26.25,0,0,0,158,199.63l-6.58,14.3A41.64,41.64,0,0,1,134.55,170.42Zm32.71,9.11a7.89,7.89,0,1,1,7.69,8.09h0a7.89,7.89,0,0,1-7.69-8.09h0Zm11.83-25.81a26.53,26.53,0,0,0-3.27-.29,26.24,26.24,0,0,0-20.24,8.79l-14.3-6.61a41.58,41.58,0,0,1,44.42-16.14Zm-6.14,52.21c0.5,0,1,.08,1.55.09a26.24,26.24,0,0,0,19.72-8.11l14.41,6.64a41.56,41.56,0,0,1-42.32,15.88Z"/></g><path class="cls-25" d="M42,147.58A43.57,43.57,0,0,1,85.57,104"/><polyline class="cls-26" points="38.67 142.17 42 147.58 46.67 143.5"/></svg>